<mxfile host="app.diagrams.net" agent="Mozilla/5.0 (Macintosh; Intel Mac OS X 10_15_7) AppleWebKit/605.1.15 (KHTML, like Gecko) Version/17.6 Safari/605.1.15" version="26.0.10">
  <diagram name="Sida-1" id="Zv0mVHGel3g9_tVJF6ZX">
    <mxGraphModel dx="954" dy="647" grid="1" gridSize="10" guides="1" tooltips="1" connect="1" arrows="1" fold="1" page="1" pageScale="1" pageWidth="827" pageHeight="1169" math="0" shadow="0">
      <root>
        <mxCell id="0" />
        <mxCell id="1" parent="0" />
        <mxCell id="E92bsyx57I7ib0fodxlY-15" value="" style="rounded=0;whiteSpace=wrap;html=1;rotation=90;" vertex="1" parent="1">
          <mxGeometry x="45.07" y="306.19" width="617.87" height="255" as="geometry" />
        </mxCell>
        <mxCell id="E92bsyx57I7ib0fodxlY-1" value="Actor" style="shape=umlActor;verticalLabelPosition=bottom;verticalAlign=top;html=1;outlineConnect=0;" vertex="1" parent="1">
          <mxGeometry x="120" y="210" width="50" height="90" as="geometry" />
        </mxCell>
        <mxCell id="E92bsyx57I7ib0fodxlY-5" value="Particle system" style="text;html=1;align=center;verticalAlign=middle;whiteSpace=wrap;rounded=0;fontStyle=1" vertex="1" parent="1">
          <mxGeometry x="279" y="160" width="150" height="30" as="geometry" />
        </mxCell>
        <mxCell id="E92bsyx57I7ib0fodxlY-7" value="" style="ellipse;whiteSpace=wrap;html=1;" vertex="1" parent="1">
          <mxGeometry x="294" y="200" width="120" height="50" as="geometry" />
        </mxCell>
        <mxCell id="E92bsyx57I7ib0fodxlY-8" value="Create particle system" style="text;html=1;align=center;verticalAlign=middle;whiteSpace=wrap;rounded=0;" vertex="1" parent="1">
          <mxGeometry x="294" y="215" width="120" height="20" as="geometry" />
        </mxCell>
        <mxCell id="E92bsyx57I7ib0fodxlY-10" value="" style="ellipse;whiteSpace=wrap;html=1;" vertex="1" parent="1">
          <mxGeometry x="294" y="260" width="130" height="50" as="geometry" />
        </mxCell>
        <mxCell id="E92bsyx57I7ib0fodxlY-11" value="Update particle system" style="text;html=1;align=center;verticalAlign=middle;whiteSpace=wrap;rounded=0;" vertex="1" parent="1">
          <mxGeometry x="314" y="270" width="90" height="30" as="geometry" />
        </mxCell>
        <mxCell id="E92bsyx57I7ib0fodxlY-12" value="" style="ellipse;whiteSpace=wrap;html=1;" vertex="1" parent="1">
          <mxGeometry x="299" y="330" width="121" height="50" as="geometry" />
        </mxCell>
        <mxCell id="E92bsyx57I7ib0fodxlY-13" value="Fetch current positions" style="text;html=1;align=center;verticalAlign=middle;whiteSpace=wrap;rounded=0;" vertex="1" parent="1">
          <mxGeometry x="319.25" y="340" width="80.5" height="30" as="geometry" />
        </mxCell>
        <mxCell id="E92bsyx57I7ib0fodxlY-16" value="" style="ellipse;whiteSpace=wrap;html=1;" vertex="1" parent="1">
          <mxGeometry x="299" y="400" width="131" height="50" as="geometry" />
        </mxCell>
        <mxCell id="E92bsyx57I7ib0fodxlY-17" value="Change draw options" style="text;html=1;align=center;verticalAlign=middle;whiteSpace=wrap;rounded=0;" vertex="1" parent="1">
          <mxGeometry x="314" y="410" width="106" height="30" as="geometry" />
        </mxCell>
        <mxCell id="E92bsyx57I7ib0fodxlY-19" value="" style="ellipse;whiteSpace=wrap;html=1;" vertex="1" parent="1">
          <mxGeometry x="299" y="460" width="136" height="50" as="geometry" />
        </mxCell>
        <mxCell id="E92bsyx57I7ib0fodxlY-20" value="Add field" style="text;html=1;align=center;verticalAlign=middle;whiteSpace=wrap;rounded=0;" vertex="1" parent="1">
          <mxGeometry x="325.5" y="470" width="83" height="30" as="geometry" />
        </mxCell>
        <mxCell id="E92bsyx57I7ib0fodxlY-21" value="" style="ellipse;whiteSpace=wrap;html=1;" vertex="1" parent="1">
          <mxGeometry x="299" y="524.13" width="140.25" height="50" as="geometry" />
        </mxCell>
        <mxCell id="E92bsyx57I7ib0fodxlY-22" value="Add emmiter" style="text;html=1;align=center;verticalAlign=middle;whiteSpace=wrap;rounded=0;" vertex="1" parent="1">
          <mxGeometry x="332.5" y="530" width="76" height="30" as="geometry" />
        </mxCell>
        <mxCell id="E92bsyx57I7ib0fodxlY-23" value="" style="ellipse;whiteSpace=wrap;html=1;" vertex="1" parent="1">
          <mxGeometry x="303.25" y="585" width="136" height="45" as="geometry" />
        </mxCell>
        <mxCell id="E92bsyx57I7ib0fodxlY-24" value="Modify particle state" style="text;html=1;align=center;verticalAlign=middle;whiteSpace=wrap;rounded=0;" vertex="1" parent="1">
          <mxGeometry x="318.5" y="592.5" width="105.5" height="30" as="geometry" />
        </mxCell>
        <mxCell id="E92bsyx57I7ib0fodxlY-26" value="" style="shape=trapezoid;perimeter=trapezoidPerimeter;whiteSpace=wrap;html=1;fixedSize=1;" vertex="1" parent="1">
          <mxGeometry x="640" y="592.5" width="120" height="60" as="geometry" />
        </mxCell>
        <mxCell id="E92bsyx57I7ib0fodxlY-27" value="Library" style="text;html=1;align=center;verticalAlign=middle;whiteSpace=wrap;rounded=0;" vertex="1" parent="1">
          <mxGeometry x="670" y="607.5" width="60" height="30" as="geometry" />
        </mxCell>
        <mxCell id="E92bsyx57I7ib0fodxlY-28" value="" style="ellipse;whiteSpace=wrap;html=1;" vertex="1" parent="1">
          <mxGeometry x="303.25" y="652.5" width="141.5" height="57.5" as="geometry" />
        </mxCell>
        <mxCell id="E92bsyx57I7ib0fodxlY-29" value="Save/load" style="text;html=1;align=center;verticalAlign=middle;whiteSpace=wrap;rounded=0;" vertex="1" parent="1">
          <mxGeometry x="344" y="666.25" width="60" height="30" as="geometry" />
        </mxCell>
        <mxCell id="E92bsyx57I7ib0fodxlY-31" value="" style="endArrow=classic;html=1;rounded=0;entryX=0.104;entryY=0;entryDx=0;entryDy=0;entryPerimeter=0;" edge="1" parent="1" target="E92bsyx57I7ib0fodxlY-17">
          <mxGeometry width="50" height="50" relative="1" as="geometry">
            <mxPoint x="160" y="260" as="sourcePoint" />
            <mxPoint x="210" y="210" as="targetPoint" />
          </mxGeometry>
        </mxCell>
        <mxCell id="E92bsyx57I7ib0fodxlY-33" value="" style="endArrow=classic;html=1;rounded=0;entryX=0.059;entryY=0.32;entryDx=0;entryDy=0;entryPerimeter=0;" edge="1" parent="1" target="E92bsyx57I7ib0fodxlY-19">
          <mxGeometry width="50" height="50" relative="1" as="geometry">
            <mxPoint x="160" y="260" as="sourcePoint" />
            <mxPoint x="230" y="256.19" as="targetPoint" />
          </mxGeometry>
        </mxCell>
        <mxCell id="E92bsyx57I7ib0fodxlY-36" value="" style="endArrow=classic;html=1;rounded=0;entryX=0;entryY=0.5;entryDx=0;entryDy=0;" edge="1" parent="1" target="E92bsyx57I7ib0fodxlY-21">
          <mxGeometry width="50" height="50" relative="1" as="geometry">
            <mxPoint x="160" y="260" as="sourcePoint" />
            <mxPoint x="304" y="295" as="targetPoint" />
          </mxGeometry>
        </mxCell>
        <mxCell id="E92bsyx57I7ib0fodxlY-37" value="" style="endArrow=classic;html=1;rounded=0;entryX=0;entryY=0.5;entryDx=0;entryDy=0;" edge="1" parent="1" target="E92bsyx57I7ib0fodxlY-23">
          <mxGeometry width="50" height="50" relative="1" as="geometry">
            <mxPoint x="160" y="260" as="sourcePoint" />
            <mxPoint x="309" y="559" as="targetPoint" />
          </mxGeometry>
        </mxCell>
        <mxCell id="E92bsyx57I7ib0fodxlY-38" value="" style="endArrow=classic;html=1;rounded=0;entryX=0;entryY=0.5;entryDx=0;entryDy=0;" edge="1" parent="1" target="E92bsyx57I7ib0fodxlY-28">
          <mxGeometry width="50" height="50" relative="1" as="geometry">
            <mxPoint x="160" y="260" as="sourcePoint" />
            <mxPoint x="313" y="618" as="targetPoint" />
          </mxGeometry>
        </mxCell>
        <mxCell id="E92bsyx57I7ib0fodxlY-40" value="" style="endArrow=classic;startArrow=classic;html=1;rounded=0;entryX=0;entryY=0.5;entryDx=0;entryDy=0;" edge="1" parent="1" target="E92bsyx57I7ib0fodxlY-26">
          <mxGeometry width="50" height="50" relative="1" as="geometry">
            <mxPoint x="439.25" y="666.25" as="sourcePoint" />
            <mxPoint x="489.25" y="616.25" as="targetPoint" />
          </mxGeometry>
        </mxCell>
      </root>
    </mxGraphModel>
  </diagram>
</mxfile>
